ffmpeg version 4.2.4-1ubuntu0.1 Copyright (c) 2000-2020 the FFmpeg developers
  built with gcc 9 (Ubuntu 9.3.0-10ubuntu2)
  configuration: --prefix=/usr --extra-version=1ubuntu0.1 --toolchain=hardened --libdir=/usr/lib/x86_64-linux-gnu --incdir=/usr/include/x86_64-linux-gnu --arch=amd64 --enable-gpl --disable-stripping --enable-avresample --disable-filter=resample --enable-avisynth --enable-gnutls --enable-ladspa --enable-libaom --enable-libass --enable-libbluray --enable-libbs2b --enable-libcaca --enable-libcdio --enable-libcodec2 --enable-libflite --enable-libfontconfig --enable-libfreetype --enable-libfribidi --enable-libgme --enable-libgsm --enable-libjack --enable-libmp3lame --enable-libmysofa --enable-libopenjpeg --enable-libopenmpt --enable-libopus --enable-libpulse --enable-librsvg --enable-librubberband --enable-libshine --enable-libsnappy --enable-libsoxr --enable-libspeex --enable-libssh --enable-libtheora --enable-libtwolame --enable-libvidstab --enable-libvorbis --enable-libvpx --enable-libwavpack --enable-libwebp --enable-libx265 --enable-libxml2 --enable-libxvid --enable-libzmq --enable-libzvbi --enable-lv2 --enable-omx --enable-openal --enable-opencl --enable-opengl --enable-sdl2 --enable-libdc1394 --enable-libdrm --enable-libiec61883 --enable-nvenc --enable-chromaprint --enable-frei0r --enable-libx264 --enable-shared
  WARNING: library configuration mismatch
  avcodec     configuration: --prefix=/usr --extra-version=1ubuntu0.1 --toolchain=hardened --libdir=/usr/lib/x86_64-linux-gnu --incdir=/usr/include/x86_64-linux-gnu --arch=amd64 --enable-gpl --disable-stripping --enable-avresample --disable-filter=resample --enable-avisynth --enable-gnutls --enable-ladspa --enable-libaom --enable-libass --enable-libbluray --enable-libbs2b --enable-libcaca --enable-libcdio --enable-libcodec2 --enable-libflite --enable-libfontconfig --enable-libfreetype --enable-libfribidi --enable-libgme --enable-libgsm --enable-libjack --enable-libmp3lame --enable-libmysofa --enable-libopenjpeg --enable-libopenmpt --enable-libopus --enable-libpulse --enable-librsvg --enable-librubberband --enable-libshine --enable-libsnappy --enable-libsoxr --enable-libspeex --enable-libssh --enable-libtheora --enable-libtwolame --enable-libvidstab --enable-libvorbis --enable-libvpx --enable-libwavpack --enable-libwebp --enable-libx265 --enable-libxml2 --enable-libxvid --enable-libzmq --enable-libzvbi --enable-lv2 --enable-omx --enable-openal --enable-opencl --enable-opengl --enable-sdl2 --enable-libdc1394 --enable-libdrm --enable-libiec61883 --enable-nvenc --enable-chromaprint --enable-frei0r --enable-libx264 --enable-shared --enable-version3 --disable-doc --disable-programs --enable-libaribb24 --enable-liblensfun --enable-libopencore_amrnb --enable-libopencore_amrwb --enable-libtesseract --enable-libvo_amrwbenc
  libavutil      56. 31.100 / 56. 31.100
  libavcodec     58. 54.100 / 58. 54.100
  libavformat    58. 29.100 / 58. 29.100
  libavdevice    58.  8.100 / 58.  8.100
  libavfilter     7. 57.100 /  7. 57.100
  libavresample   4.  0.  0 /  4.  0.  0
  libswscale      5.  5.100 /  5.  5.100
  libswresample   3.  5.100 /  3.  5.100
  libpostproc    55.  5.100 / 55.  5.100
Input #0, image2pipe, from 'pipe:':
  Duration: N/A, bitrate: N/A
    Stream #0:0: Video: ppm, rgb24, 320x240, 20 fps, 20 tbr, 20 tbn, 20 tbc
Stream mapping:
  Stream #0:0 -> #0:0 (ppm (native) -> h264 (libx264))
[libx264 @ 0x55e943b87f40] using cpu capabilities: MMX2 SSE2Fast SSSE3 SSE4.2 AVX FMA3 BMI2 AVX2
[libx264 @ 0x55e943b87f40] profile High, level 1.3
[libx264 @ 0x55e943b87f40] 264 - core 155 r2917 0a84d98 - H.264/MPEG-4 AVC codec - Copyleft 2003-2018 - http://www.videolan.org/x264.html - options: cabac=1 ref=3 deblock=1:0:0 analyse=0x3:0x113 me=hex subme=7 psy=1 psy_rd=1.00:0.00 mixed_ref=1 me_range=16 chroma_me=1 trellis=1 8x8dct=1 cqm=0 deadzone=21,11 fast_pskip=1 chroma_qp_offset=-2 threads=7 lookahead_threads=1 sliced_threads=0 nr=0 decimate=1 interlaced=0 bluray_compat=0 constrained_intra=0 bframes=3 b_pyramid=2 b_adapt=1 b_bias=0 direct=1 weightb=1 open_gop=0 weightp=2 keyint=250 keyint_min=20 scenecut=40 intra_refresh=0 rc_lookahead=40 rc=abr mbtree=1 bitrate=400 ratetol=1.0 qcomp=0.60 qpmin=0 qpmax=69 qpstep=4 ip_ratio=1.40 aq=1:1.00
Output #0, mp4, to './mission_records/3170099a-f24a-4f37-ab97-a4b8475f829a/video.mp4':
  Metadata:
    encoder         : Lavf58.29.100
    Stream #0:0: Video: h264 (libx264) (avc1 / 0x31637661), yuv420p, 320x240, q=-1--1, 400 kb/s, 20 fps, 10240 tbn, 20 tbc
    Metadata:
      encoder         : Lavc58.54.100 libx264
    Side data:
      cpb: bitrate max/min/avg: 0/0/400000 buffer size: 0 vbv_delay: -1
frame=   32 fps=0.0 q=0.0 size=       0kB time=00:00:00.00 bitrate=N/A speed=   0x    frame=   41 fps= 39 q=0.0 size=       0kB time=00:00:00.00 bitrate=N/A speed=   0x    frame=   50 fps= 32 q=0.0 size=       0kB time=00:00:00.00 bitrate=N/A speed=   0x    frame=   59 fps= 28 q=29.0 size=       0kB time=00:00:00.25 bitrate=   1.5kbits/s speed=0.119x    frame=   69 fps= 26 q=26.0 size=       0kB time=00:00:00.75 bitrate=   0.5kbits/s speed=0.284x    frame=   78 fps= 24 q=23.0 size=       0kB time=00:00:01.20 bitrate=   0.3kbits/s speed=0.376x    frame=   88 fps= 24 q=21.0 size=       0kB time=00:00:01.70 bitrate=   0.2kbits/s speed=0.456x    frame=   97 fps= 23 q=20.0 size=       0kB time=00:00:02.15 bitrate=   0.2kbits/s speed=0.506x    frame=  106 fps= 22 q=20.0 size=       0kB time=00:00:02.60 bitrate=   0.1kbits/s speed=0.544x    frame=  115 fps= 22 q=19.0 size=       0kB time=00:00:03.05 bitrate=   0.1kbits/s speed=0.575x    frame=  124 fps= 21 q=18.0 size=       0kB time=00:00:03.50 bitrate=   0.1kbits/s speed=0.602x    frame=  134 fps= 21 q=18.0 size=       0kB time=00:00:04.00 bitrate=   0.1kbits/s speed=0.628x    frame=  143 fps= 21 q=18.0 size=       0kB time=00:00:04.45 bitrate=   0.1kbits/s speed=0.643x    frame=  151 fps= 20 q=18.0 size=       0kB time=00:00:04.85 bitrate=   0.1kbits/s speed=0.651x    frame=  160 fps= 20 q=18.0 size=       0kB time=00:00:05.30 bitrate=   0.1kbits/s speed=0.665x    frame=  169 fps= 20 q=18.0 size=       0kB time=00:00:05.75 bitrate=   0.1kbits/s speed=0.676x    frame=  179 fps= 20 q=18.0 size=       0kB time=00:00:06.25 bitrate=   0.1kbits/s speed=0.69x    frame=  188 fps= 20 q=18.0 size=     256kB time=00:00:06.70 bitrate= 313.1kbits/s speed=0.701x    frame=  197 fps= 20 q=17.0 size=     256kB time=00:00:07.15 bitrate= 293.4kbits/s speed=0.709x    frame=  206 fps= 19 q=17.0 size=     256kB time=00:00:07.60 bitrate= 276.0kbits/s speed=0.716x    frame=  216 fps= 19 q=17.0 size=     256kB time=00:00:08.10 bitrate= 259.0kbits/s speed=0.726x    frame=  225 fps= 19 q=17.0 size=     256kB time=00:00:08.55 bitrate= 245.3kbits/s speed=0.733x    frame=  234 fps= 19 q=17.0 size=     256kB time=00:00:09.00 bitrate= 233.1kbits/s speed=0.739x    frame=  243 fps= 19 q=17.0 size=     256kB time=00:00:09.45 bitrate= 222.0kbits/s speed=0.743x    frame=  252 fps= 19 q=17.0 size=     256kB time=00:00:09.90 bitrate= 211.9kbits/s speed=0.746x    frame=  261 fps= 19 q=17.0 size=     256kB time=00:00:10.35 bitrate= 202.7kbits/s speed=0.751x    frame=  270 fps= 19 q=17.0 size=     256kB time=00:00:10.80 bitrate= 194.2kbits/s speed=0.754x    frame=  279 fps= 19 q=17.0 size=     256kB time=00:00:11.25 bitrate= 186.4kbits/s speed=0.757x    frame=  288 fps= 19 q=17.0 size=     512kB time=00:00:11.70 bitrate= 358.5kbits/s speed=0.759x    frame=  297 fps= 19 q=18.0 size=     512kB time=00:00:12.15 bitrate= 345.2kbits/s speed=0.762x    frame=  306 fps= 19 q=18.0 size=     512kB time=00:00:12.60 bitrate= 332.9kbits/s speed=0.765x    frame=  315 fps= 19 q=18.0 size=     512kB time=00:00:13.05 bitrate= 321.4kbits/s speed=0.767x    frame=  324 fps= 19 q=18.0 size=     512kB time=00:00:13.50 bitrate= 310.7kbits/s speed=0.771x    frame=  333 fps= 18 q=18.0 size=     512kB time=00:00:13.95 bitrate= 300.7kbits/s speed=0.774x    frame=  342 fps= 18 q=18.0 size=     512kB time=00:00:14.40 bitrate= 291.3kbits/s speed=0.777x    frame=  351 fps= 18 q=18.0 size=     512kB time=00:00:14.85 bitrate= 282.5kbits/s speed=0.779x    frame=  360 fps= 18 q=18.0 size=     512kB time=00:00:15.30 bitrate= 274.2kbits/s speed=0.782x    frame=  364 fps= 18 q=-1.0 Lsize=     834kB time=00:00:18.05 bitrate= 378.7kbits/s speed=0.904x    
video:829kB audio:0kB subtitle:0kB other streams:0kB global headers:0kB muxing overhead: 0.596900%
[libx264 @ 0x55e943b87f40] frame I:2     Avg QP:14.65  size: 20172
[libx264 @ 0x55e943b87f40] frame P:104   Avg QP: 9.58  size:  5460
[libx264 @ 0x55e943b87f40] frame B:258   Avg QP:15.70  size:   932
[libx264 @ 0x55e943b87f40] consecutive B-frames:  2.5%  4.9% 12.4% 80.2%
[libx264 @ 0x55e943b87f40] mb I  I16..4: 26.3% 34.0% 39.7%
[libx264 @ 0x55e943b87f40] mb P  I16..4:  3.1%  1.1%  0.6%  P16..4: 56.9%  5.3% 11.1%  0.0%  0.0%    skip:22.0%
[libx264 @ 0x55e943b87f40] mb B  I16..4:  0.1%  0.0%  0.0%  B16..8: 22.2%  1.9%  1.8%  direct: 4.6%  skip:69.4%  L0:45.3% L1:50.3% BI: 4.5%
[libx264 @ 0x55e943b87f40] final ratefactor: 13.56
[libx264 @ 0x55e943b87f40] 8x8 transform intra:25.4% inter:47.2%
[libx264 @ 0x55e943b87f40] coded y,uvDC,uvAC intra: 43.6% 46.8% 39.6% inter: 18.9% 18.8% 12.5%
[libx264 @ 0x55e943b87f40] i16 v,h,dc,p:  5% 62% 32%  1%
[libx264 @ 0x55e943b87f40] i8 v,h,dc,ddl,ddr,vr,hd,vl,hu:  7% 24% 30%  6%  6%  4%  6%  5% 11%
[libx264 @ 0x55e943b87f40] i4 v,h,dc,ddl,ddr,vr,hd,vl,hu: 10% 32% 19%  5%  6%  5%  7%  6%  8%
[libx264 @ 0x55e943b87f40] i8c dc,h,v,p: 38% 55%  4%  3%
[libx264 @ 0x55e943b87f40] Weighted P-Frames: Y:14.4% UV:2.9%
[libx264 @ 0x55e943b87f40] ref P L0: 82.4%  6.0%  8.3%  3.2%  0.1%
[libx264 @ 0x55e943b87f40] ref B L0: 89.3%  8.8%  1.9%
[libx264 @ 0x55e943b87f40] ref B L1: 92.7%  7.3%
[libx264 @ 0x55e943b87f40] kb/s:373.05
